<svg width="172" height="64" viewBox="0 0 172 64" fill="none" xmlns="http://www.w3.org/2000/svg">
<path d="M48.7222 59.838L31.7971 24.3715L19.2835 57.3199H0V49.0795H12.0964L30.7382 0L48.4977 37.2169L64.8775 1.25223L80.4552 31.5079L71.4391 34.7797L65.4391 23.1192L48.7222 59.838Z" fill="#1A1A1A"/>
<path d="M106.06 60.9017C100.794 60.8962 95.5957 59.9102 90.8388 58.0151C86.0819 56.1199 81.8851 53.3626 78.551 49.9419C75.2169 46.5213 72.8285 42.5225 71.5578 38.2336C70.2871 33.9447 70.1657 29.4727 71.2025 25.1399C72.2395 20.8068 74.4087 16.7209 77.5538 13.1765C80.699 9.63203 84.742 6.71734 89.3911 4.64242C94.0402 2.56749 99.1801 1.38404 104.44 1.17735C109.7 0.97066 114.949 1.74587 119.809 3.44712L124.91 5.2245L120.643 13.7882L115.493 11.9973C112.428 10.9222 109.134 10.3802 105.812 10.404C102.49 10.4279 99.2086 11.0171 96.1656 12.1362C93.1227 13.2552 90.3818 14.8806 88.1089 16.9143C85.8359 18.9479 84.0783 21.3474 82.942 23.9676C80.911 28.78 81.068 34.0525 83.3833 38.7737C85.6984 43.495 90.0087 47.3326 95.4876 49.5509C98.4881 50.7448 101.746 51.4157 105.064 51.5229C108.383 51.6301 111.692 51.1713 114.794 50.1745C117.895 49.1777 120.723 47.6636 123.107 45.7235C125.491 43.7832 127.382 41.4574 128.664 38.8867L130.798 34.6048L140.985 38.1866L138.852 42.4548C137.011 46.1896 134.28 49.569 130.826 52.3848C127.372 55.2006 123.267 57.3934 118.766 58.8282C114.716 60.1629 110.41 60.8657 106.06 60.9017Z" fill="#1A1A1A"/>
<path d="M144.659 9.08875H133.605V63.7426H144.659V9.08875Z" fill="#CECECE"/>
<path d="M171.675 31.7908H106.557V41.0682H171.675V31.7908Z" fill="#CECECE"/>
<path d="M139.124 31.7908H106.557V41.0682H133.605V63.7565H144.643V31.7908H139.124Z" fill="#FF3B81"/>
</svg>
